<?xml version="1.0" encoding="UTF-8" standalone="no"?>
<!-- Created with Inkscape (http://www.inkscape.org/) -->

<svg
   xmlns:dc="http://purl.org/dc/elements/1.1/"
   xmlns:cc="http://creativecommons.org/ns#"
   xmlns:rdf="http://www.w3.org/1999/02/22-rdf-syntax-ns#"
   xmlns:svg="http://www.w3.org/2000/svg"
   xmlns="http://www.w3.org/2000/svg"
   xmlns:xlink="http://www.w3.org/1999/xlink"
   xmlns:sodipodi="http://sodipodi.sourceforge.net/DTD/sodipodi-0.dtd"
   xmlns:inkscape="http://www.inkscape.org/namespaces/inkscape"
   id="svg2"
   version="1.1"
   inkscape:version="0.91 r13725"
   width="420"
   height="420"
   sodipodi:docname="Abc_2013_logo_blue.svg">
  <metadata
     id="metadata8">
    <rdf:RDF>
      <cc:Work
         rdf:about="">
        <dc:format>image/svg+xml</dc:format>
        <dc:type
           rdf:resource="http://purl.org/dc/dcmitype/StillImage" />
        <dc:title />
      </cc:Work>
    </rdf:RDF>
  </metadata>
  <defs
     id="defs6">
    <linearGradient
       inkscape:collect="always"
       id="linearGradient3769">
      <stop
         style="stop-color:#ffffff;stop-opacity:1"
         offset="0"
         id="stop3771" />
      <stop
         style="stop-color:#ffffff;stop-opacity:0"
         offset="1"
         id="stop3773" />
    </linearGradient>
    <linearGradient
       inkscape:collect="always"
       id="linearGradient3759">
      <stop
         style="stop-color:#5eb5ff;stop-opacity:1"
         offset="0"
         id="stop3761" />
      <stop
         style="stop-color:#000000;stop-opacity:0;"
         offset="1"
         id="stop3763" />
    </linearGradient>
    <radialGradient
       inkscape:collect="always"
       xlink:href="#linearGradient3759"
       id="radialGradient3765"
       cx="732.85596"
       cy="129.42476"
       fx="732.85596"
       fy="129.42476"
       r="119.13212"
       gradientTransform="matrix(3.5555616,0.07646147,-0.06539151,3.0590829,-2994.1668,-772.92132)"
       gradientUnits="userSpaceOnUse" />
    <radialGradient
       inkscape:collect="always"
       xlink:href="#linearGradient3769"
       id="radialGradient3775"
       cx="675.65594"
       cy="3.6779966"
       fx="675.65594"
       fy="3.6779966"
       r="134.22951"
       gradientTransform="matrix(2.1954478,-0.19185261,0.13163758,1.9008793,-1465.1243,85.853787)"
       gradientUnits="userSpaceOnUse" />
  </defs>
  <sodipodi:namedview
     pagecolor="#ffffff"
     bordercolor="#666666"
     borderopacity="1"
     objecttolerance="10"
     gridtolerance="10"
     guidetolerance="10"
     inkscape:pageopacity="0"
     inkscape:pageshadow="2"
     inkscape:window-width="1920"
     inkscape:window-height="1028"
     id="namedview4"
     showgrid="false"
     inkscape:zoom="1"
     inkscape:cx="-53.94375"
     inkscape:cy="206.74795"
     inkscape:window-x="-8"
     inkscape:window-y="-8"
     inkscape:window-maximized="1"
     inkscape:current-layer="svg2" />
  <ellipse
     style="fill:#000000;fill-rule:evenodd;stroke:#000000;stroke-width:1.72682917px;stroke-linecap:butt;stroke-linejoin:miter;stroke-opacity:1"
     id="path2987"
     cx="210.733"
     cy="210.58681"
     rx="204.77695"
     ry="207.9682" />
  <ellipse
     style="fill:url(#radialGradient3765);fill-opacity:1;fill-rule:evenodd;stroke:none"
     id="path2989"
     transform="matrix(-0.99262052,-0.12126213,0.1205263,-0.99271013,0,0)"
     cx="-234.7471"
     cy="-186.49501"
     rx="205.52817"
     ry="205.73605" />
  <ellipse
     style="fill:url(#radialGradient3775);fill-opacity:1;stroke:none"
     id="path3767"
     cx="206.59662"
     cy="210.8988"
     rx="201.8392"
     ry="209.11385" />
  <path
     inkscape:connector-curvature="0"
     id="path5971"
     style="fill:#ffffff;fill-opacity:1;fill-rule:evenodd"
     d="m 211.82019,176.31633 c -17.45367,0 -31.61016,14.80735 -31.61016,33.07147 0,18.26413 14.15653,33.07148 31.61016,33.07148 17.45361,0 31.61013,-14.80966 31.61013,-33.07148 0,-18.26182 -14.1566,-33.07147 -31.61013,-33.07147 z m -134.500494,0 c -17.453617,0 -31.598868,14.80735 -31.598868,33.07147 0,18.26413 14.145251,33.07148 31.598868,33.07148 17.453645,0 31.610144,-14.80966 31.610144,-33.07148 0,-18.26182 -14.156499,-33.07147 -31.610144,-33.07147 z M 346.51167,144.44022 c 30.01713,0 55.16226,22.93506 61.05075,52.51354 l -31.30658,-0.11717 c -4.80183,-11.86685 -16.07732,-19.8757 -29.17085,-19.8757 -17.4514,0 -31.61012,14.79562 -31.61012,33.05975 0,18.26644 14.15651,33.07148 31.61012,33.07148 13.09353,0 24.50608,-7.93163 29.30575,-19.80538 l 31.30662,-0.14065 c -5.80906,29.6913 -31.0935,51.61121 -61.18569,51.61121 -34.38815,0 -62.26475,-29.17357 -62.26475,-65.15855 0,-35.98498 27.8766,-65.15853 62.26475,-65.15853 z M 76.937503,144.14723 c 34.390397,0 64.310647,28.93689 64.310647,64.92415 l 0.0339,65.95543 -31.28415,0.23439 0,-17.82487 C 101.33726,267.701 91.471229,274.54486 76.937583,274.46431 42.549387,274.2663 14.661558,245.29075 14.661558,209.30577 c 0,-35.98498 27.887829,-65.15854 62.276025,-65.15854 z m 71.347657,-42.42335 31.2279,0 0.045,61.26776 c 8.66278,-10.26464 18.52663,-17.1108 33.06027,-17.02794 34.38599,0.20028 62.26474,29.18529 62.26474,65.17026 0,35.98497 -27.881,65.1468 -62.26474,65.1468 -34.38816,0 -64.29943,-28.93456 -64.29943,-64.92414 L 148.285,101.72388 Z" />
</svg>
