<svg width="300" height="300" xmlns="http://www.w3.org/2000/svg">

 <g>
  <title>background</title>
  <rect fill="none" id="canvas_background" height="302" width="302" y="-1" x="-1"/>
 </g>
 <g>
  <title>Layer 1</title>
  <g stroke="null" id="svg_1">
   <g stroke="null" id="svg_2" fill="#000000" transform="matrix(0.82302261,0,0,-0.82302261,189.63913,997.27701) ">
    <path stroke="null" id="svg_3" fill="#000000" fill-rule="nonzero" d="m-32.973824,1014.193207c0,-11.25 -14,-10.583 -14,-10.583l-14,0l0,20.333l14,0c14.417,0.083 14,-9.75 14,-9.75m-28,40.75l10.667,0c11.083,-0.584 10.666,-8.833 10.666,-8.833c0,-10.25 -12.25,-10.417 -12.25,-10.417l-9.083,0l0,19.25zm25.417,-23.25c0,0 9.583,4.083 9.5,14.917c0,0 1.457,17.749 -22.063,19.916l-26.104,0l0,-74.416l29.917,0c0,0 25,-0.084 25,21c0,0 0.583,14.333 -16.25,18.583m-67.545,49.4156l109.878,0l0,-103.544l-109.878,0l0,103.544z"/>
   </g>
   <g stroke="null" id="svg_4" fill="#000000" transform="matrix(0.82302261,0,0,-0.82302261,85.355129,997.27701) ">
    <path stroke="null" id="svg_5" fill="#000000" fill-rule="nonzero" d="m-32.973824,1014.193207c0,-11.25 -14,-10.583 -14,-10.583l-14,0l0,20.333l14,0c14.417,0.083 14,-9.75 14,-9.75m-28,40.75l10.667,0c11.083,-0.584 10.666,-8.833 10.666,-8.833c0,-10.25 -12.25,-10.417 -12.25,-10.417l-9.083,0l0,19.25zm25.417,-23.25c0,0 9.583,4.083 9.5,14.917c0,0 1.457,17.749 -22.063,19.916l-26.104,0l0,-74.416l29.917,0c0,0 25,-0.084 25,21c0,0 0.583,14.333 -16.25,18.583m-67.545,49.4156l109.878,0l0,-103.544l-109.878,0l0,103.544z"/>
   </g>
   <g stroke="null" id="svg_6" fill="#000000" transform="matrix(0.82302261,0,0,-0.82302261,308.1885,958.5961) ">
    <path stroke="null" id="svg_7" fill="#000000" fill-rule="nonzero" d="m-32.973824,1014.193207l0,-13.75c0,0 -13.417,8.25 -28.25,8.417c0,0 -27.666,0.54 -28.916,-26.522c0,0 -1,-24.895 28.583,-26.312c0,0 12.417,-1.5 29.25,9.25l0,-14.25c0,0 -22.583,-13.416 -48.75,-3.083c0,0 -22,8.04 -22.834,34.395c0,0 -0.917,27.105 28.417,36.105c0,0 7.834,3 21.917,1.667c0,0 8.416,-0.834 20.583,-5.917m-87.461,-83.627l109.878,0l0,103.544l-109.878,0l0,-103.544z"/>
   </g>
  </g>
 </g>
</svg>