<?xml version="1.0" encoding="UTF-8" standalone="no"?>
<svg
   xmlns:dc="http://purl.org/dc/elements/1.1/"
   xmlns:cc="http://creativecommons.org/ns#"
   xmlns:rdf="http://www.w3.org/1999/02/22-rdf-syntax-ns#"
   xmlns:svg="http://www.w3.org/2000/svg"
   xmlns="http://www.w3.org/2000/svg"
   xmlns:sodipodi="http://sodipodi.sourceforge.net/DTD/sodipodi-0.dtd"
   xmlns:inkscape="http://www.inkscape.org/namespaces/inkscape"
   viewBox="0 0 70.080566 21.34375"
   id="svg3378"
   version="1.1"
   inkscape:version="0.91 r13725"
   sodipodi:docname="CBS_logo.svg"
   height="500"
   width="500">
  <metadata
     id="metadata3392">
    <rdf:RDF>
      <cc:Work
         rdf:about="">
        <dc:format>image/svg+xml</dc:format>
        <dc:type
           rdf:resource="http://purl.org/dc/dcmitype/StillImage" />
      </cc:Work>
    </rdf:RDF>
  </metadata>
  <defs
     id="defs3390" />
  <sodipodi:namedview
     pagecolor="#ffffff"
     bordercolor="#666666"
     borderopacity="1"
     objecttolerance="10"
     gridtolerance="10"
     guidetolerance="10"
     inkscape:pageopacity="0"
     inkscape:pageshadow="2"
     inkscape:window-width="1072"
     inkscape:window-height="859"
     id="namedview3388"
     showgrid="false"
     inkscape:zoom="0.9106146"
     inkscape:cx="331.56426"
     inkscape:cy="167.39679"
     inkscape:window-x="783"
     inkscape:window-y="71"
     inkscape:window-maximized="0"
     inkscape:current-layer="svg3378" />
  <path
     d="m 10.977362,0.30783854 c -5.771774,0 -10.36168492,4.65862846 -10.36168492,10.33308446 0,5.73661 4.58991092,10.395238 10.36168492,10.395238 5.802229,0 10.330246,-4.658628 10.330246,-10.394267 C 21.308591,4.9674381 16.779591,0.30783854 10.977362,0.30783854 Z m 0,4.38573396 c 4.712714,0 8.165954,2.9581368 9.624862,5.9483215 -1.458908,3.035829 -4.912148,6.009505 -9.624862,6.009505 -4.7431703,0 -8.1669373,-2.973676 -9.6248628,-6.008534 C 2.8104247,7.6536516 6.2351741,4.6955148 10.977362,4.6955148 Z m 0,0.4700388 c -3.0700927,0 -5.5723408,2.4570211 -5.5723408,5.4773117 0,3.065935 2.5022481,5.508389 5.5723408,5.508389 3.070092,0 5.540902,-2.442454 5.540902,-5.506447 0,-3.0202903 -2.47081,-5.4792537 -5.540902,-5.4792537 z m 0,0"
     id="path3380"
     inkscape:connector-curvature="0" />
  <path
     d="m 31.075906,19.57943 c 3.392329,0 5.419081,-1.199376 7.230681,-3.127118 l -2.471793,-2.457021 c -1.382278,1.243078 -2.626034,2.049136 -4.637067,2.049136 -3.023918,0 -5.126318,-2.505579 -5.126318,-5.493821 l 0,-0.04565 c 0,-2.9892133 2.148574,-5.4326382 5.126318,-5.4326382 1.765426,0 3.146722,0.7439044 4.513281,1.9733861 L 38.183783,4.2215914 C 36.541161,2.6288979 34.545847,1.5373202 31.214428,1.5373202 c -5.419081,0 -9.195541,4.0662242 -9.195541,9.0123148 l 0,0.06118 c 0,5.007273 3.853089,8.967641 9.058001,8.967641 z m 0,0"
     id="path3382"
     inkscape:connector-curvature="0" />
  <path
     d="m 39.768442,19.274487 8.396826,0 c 3.97491,0 6.599961,-1.592693 6.599961,-4.77808 l 0,-0.06118 c 0,-2.336598 -1.257509,-3.505868 -3.300963,-4.278907 C 52.723741,9.459028 53.7828,8.3664791 53.7828,6.3940642 l 0,-0.045644 c 0,-1.200347 -0.398867,-2.1715016 -1.212318,-2.9756176 -1.011903,-0.9857218 -2.593614,-1.5324819 -4.60563,-1.5324819 l -8.19641,0 z m 3.775477,-10.3913537 0,-3.6903873 3.838352,0 c 1.642623,0 2.54744,0.653587 2.54744,1.7917801 l 0,0.061183 c 0,1.2896932 -1.090497,1.8354821 -2.809748,1.8354821 z m 0,7.0263037 0,-3.839946 4.499527,0 c 1.978614,0 2.868695,0.728366 2.868695,1.896665 l 0,0.06021 c 0,1.289693 -1.04334,1.882097 -2.746873,1.882097 z m 0,0"
     id="path3384"
     inkscape:connector-curvature="0" />
  <path
     d="m 62.987182,19.517276 c 3.806915,0 6.478141,-1.942309 6.478141,-5.39962 l 0,-0.04662 c 0,-3.049425 -2.02577,-4.309984 -5.602796,-5.2345231 C 60.823873,8.0615365 60.055613,7.6827863 60.055613,6.5445931 l 0,-0.045644 c 0,-0.8497603 0.782996,-1.5324819 2.272359,-1.5324819 1.489363,0 3.023918,0.6526158 4.589911,1.7286551 L 68.928916,3.798168 c -1.781144,-1.4110875 -3.975892,-2.2152035 -6.55477,-2.2152035 -3.591762,0 -6.169657,2.0938092 -6.169657,5.2636577 l 0,0.046615 c 0,3.4611944 2.30085,4.4323494 5.84742,5.3277544 2.947289,0.7575 3.561308,1.243077 3.561308,2.214232 l 0,0.06118 c 0,1.015827 -0.968676,1.638337 -2.549405,1.638337 -2.026752,0 -3.684111,-0.819654 -5.265823,-2.109347 l -2.301832,2.716319 c 2.118118,1.866559 4.819799,2.777502 7.491025,2.777502 z m 0,0"
     id="path3386"
     inkscape:connector-curvature="0" />
</svg>
