<svg width="300" height="300" xmlns="http://www.w3.org/2000/svg">
 <defs>
  <clipPath id="clipPath6987" clipPathUnits="userSpaceOnUse">
   <path id="path6989" d="m166.344,202.261l25.804,0l0,19.256l-25.804,0l0,-19.256z"/>
  </clipPath>
  <clipPath id="clipPath9777" clipPathUnits="userSpaceOnUse">
   <path id="path9779" d="m163.725878,338.07164l27.139,0l0,22.429l-27.139,0l0,-22.429z"/>
  </clipPath>
 </defs>
 <metadata id="metadata5229">image/svg+xml</metadata>
 <g>
  <title>background</title>
  <rect fill="none" id="canvas_background" height="302" width="302" y="-1" x="-1"/>
 </g>
 <g>
  <title>Layer 1</title>
  <g stroke="null" id="layer1">
   <g stroke="null" id="g9773" transform="matrix(36.30434582702583,0,0,-36.30434582702583,-5959.248156473626,12629.35883959617) ">
    <g stroke="null" clip-path="url(#clipPath9777)" id="g9775">
     <g stroke="null" id="g9781">
      <path fill="#182b45" fill-rule="nonzero" id="path9783" d="m167.920099,343.439484l0.669445,0l0,3.767226l-0.669445,-0.826359l0,-2.940867zm1.769126,3.377925l-0.669445,-0.826786l0,-5.276674l0.669445,0l0,6.10346zm0.430661,-4.477605l1.147437,0l0,0.669445l-1.147437,0l0,-0.669445zm-1.000756,5.521001l-0.09935,-0.122377l0,-1.063863l0.619556,0.764958l-0.520206,0.421282zm-1.629692,-3.076035l0,1.063863l-1.950771,-2.409149l0.861324,0l1.089447,1.345286zm0.430661,-5.170928l0.669445,0l0,2.2953l-0.669445,0l0,-2.2953zm-2.630022,2.725962l3.299467,0l0,0.669445l-3.299467,0l0,-0.669445zm3.729703,-2.725962l1.673612,0l0,0.669445l-1.673612,0l0,-0.669445zm-2.199361,0.669445l0.669445,0l0,-0.669445l-0.669445,0l0,0.669445z"/>
     </g>
    </g>
   </g>
  </g>
 </g>
</svg>