<svg width="722" height="722" xmlns="http://www.w3.org/2000/svg">

 <g>
  <title>background</title>
  <rect fill="none" id="canvas_background" height="724" width="724" y="-1" x="-1"/>
 </g>
 <g>
  <title>Layer 1</title>
  <g id="#ffffffff"/>
  <g id="#808285ff">
   <path id="svg_1" d="m323.42,220l11.28,0c0.13,1.29 0.35,2.56 0.67,3.81c7.66,24.75 15.39,49.48 22.88,74.28c-4.89,0.06 -9.79,0.24 -14.66,-0.19c-1.74,-7 -3.82,-13.91 -5.72,-20.86c-7.6,-0.08 -15.2,-0.07 -22.8,0c-2.07,7 -4.38,13.93 -6.35,20.97c-3.74,0.16 -7.49,0.22 -11.23,0.1c8.38,-26.12 17.32,-52.06 25.93,-78.11m0.99,26.95c-1.67,6.8 -4.08,13.39 -5.67,20.2c5.71,-0.04 11.44,0.3 17.14,-0.22c-3.03,-10.32 -5.73,-20.73 -8.33,-31.17c-1.59,3.56 -2.05,7.48 -3.14,11.19z" fill="#808285"/>
   <path id="svg_2" d="m352.35,220l52.66,0c0.05,3.56 -0.03,7.12 -0.13,10.68c-6.57,-0.05 -13.14,-0.23 -19.7,0.07c0.04,22.47 0.08,44.95 -0.03,67.42c-4.34,0.12 -8.69,0.11 -13.02,-0.06c0.02,-22.48 0.04,-44.96 -0.01,-67.44c-6.59,-0.13 -13.19,-0.04 -19.78,-0.06c-0.01,-3.53 -0.02,-7.07 0.01,-10.61z" fill="#808285"/>
   <path id="svg_3" d="m234.35,221.17c3.22,-0.24 6.45,-0.32 9.68,-0.17c10.47,14.95 20.64,30.13 30.37,45.58c2.11,3.19 3.79,6.69 6.35,9.57c-0.01,-18.4 -0.07,-36.8 0.03,-55.19c3.44,-0.11 6.89,-0.08 10.33,0.08c0.03,26.01 0.05,52.02 -0.01,78.03c-3.02,0.04 -6.07,0.31 -9.08,-0.08c-1.44,-0.95 -2.13,-2.64 -3.13,-3.99c-10.99,-16.11 -21.95,-32.27 -31.98,-49.01c-0.56,-0.82 -1.16,-1.61 -1.81,-2.36c-0.23,18.48 -0.02,36.98 -0.11,55.47c-3.54,0.07 -7.1,0.24 -10.63,-0.26c0.16,-25.89 0.19,-51.78 -0.01,-77.67z" fill="#808285"/>
   <path id="svg_4" d="m454.58,225.54c10.07,-4.39 22.28,-3.47 31.36,2.81c-1.04,2.92 -2.36,5.72 -3.47,8.61c-3.3,-0.36 -6.15,-2.34 -9.43,-2.84c-7.09,-1.53 -14.99,0.69 -19.75,6.29c-5.99,6.92 -7.34,16.64 -6.47,25.48c0.71,8.05 4.35,16.38 11.33,20.89c5.25,3.46 12.08,3.46 17.82,1.25c0.08,-7.73 -0.01,-15.46 0.05,-23.18c4.22,-0.05 8.47,-0.36 12.68,0.22c-0.16,10.19 -0.13,20.38 -0.03,30.57c-11.08,4.87 -24.46,6.97 -35.69,1.44c-9.27,-4.34 -15.58,-13.4 -18.15,-23.13c-2.41,-9.47 -2.24,-19.77 1.4,-28.91c3.28,-8.54 9.85,-15.94 18.35,-19.5z" fill="#808285"/>
   <path id="svg_5" d="m568.53,224.7c6.41,-1.54 13.34,-0.5 19.05,2.77c7.25,4.01 12.27,11.24 14.91,18.97c3.49,10.17 3.05,21.39 -0.08,31.59c-2.48,7.68 -7.12,15.06 -14.27,19.15c-8.93,5.16 -20.85,4.79 -29.24,-1.32c-8.39,-5.91 -12.67,-16.11 -14.1,-25.99c-1.91,-11.63 0.08,-24.3 7.2,-33.91c3.93,-5.56 9.9,-9.68 16.53,-11.26m1.69,10.66c-5.46,1.67 -9.07,6.75 -10.79,11.96c-2.72,8.27 -2.58,17.25 -0.98,25.73c1.18,5.2 3.19,10.62 7.45,14.09c5.58,4.57 14.76,3.73 19.26,-1.98c5.31,-6.39 6.36,-15.09 6.64,-23.11c-0.11,-8 -1.25,-16.84 -6.94,-22.94c-3.59,-4.04 -9.57,-5.17 -14.64,-3.75z" fill="#808285"/>
   <path id="svg_6" d="m502.33,225.27c10.85,-0.19 21.7,-0.02 32.55,-0.1c0.13,3.32 0.17,6.64 0.09,9.96c-6.73,0.02 -13.46,0.08 -20.19,-0.05c-0.36,6.69 -0.15,13.39 -0.1,20.09c6.5,0.15 13.01,0.15 19.52,0c0.53,3.31 0.29,6.67 0.22,10.01c-6.54,0.08 -13.09,0.09 -19.63,-0.01c-0.41,7.93 -0.12,15.88 -0.14,23.81c8.02,0.11 16.05,-0.13 24.08,0.13c-0.09,3.24 -0.09,6.48 0,9.72c-12.15,0.28 -24.33,0.29 -36.47,0c0.18,-24.52 0.04,-49.04 0.07,-73.56z" fill="#808285"/>
   <path id="svg_7" d="m220.06,320.18c13.64,-1.31 27.2,-3.36 40.86,-4.46c6.07,38.17 12.4,76.31 18.56,114.47c0.2,0.91 0.53,1.79 0.84,2.67c9.31,-38.33 19.6,-76.43 29,-114.75c11.39,-0.25 22.83,-0.42 34.22,0.09c9.71,36.43 20.04,72.71 29.9,109.1c0.3,1.09 0.73,2.12 1.28,3.12c5.62,-38.23 10.8,-76.52 16.32,-114.76c11.74,1.63 23.43,3.67 35.15,5.49c-10.35,52.9 -21.35,105.69 -31.61,158.61c-5.5,0.42 -11.03,0.64 -16.54,0.29c-9.28,-0.43 -18.57,0.72 -27.83,-0.19c-8.16,-30.09 -16.43,-60.16 -24.63,-90.25c-0.58,-2.3 -1.2,-4.59 -2.14,-6.77c-8.11,32.37 -16.5,64.68 -24.61,97.05c-9.6,0.48 -19.21,0.01 -28.82,0.21c-5.19,-0.02 -10.41,0.47 -15.57,-0.38c-11.09,-53.25 -23.22,-106.3 -34.38,-159.54z" fill="#808285"/>
   <path id="svg_8" d="m494.18,318.28c13.15,0.12 26.29,-0.01 39.44,0.07c0.01,43.54 -0.08,87.09 0.04,130.63c16.39,0.12 32.77,-0.15 49.15,0.14c0.08,10.25 0.04,20.51 0.03,30.77c-3.92,0.71 -7.89,0.14 -11.83,0.11c-24.69,0.42 -49.38,-0.18 -74.07,0.15c-0.71,-0.06 -2.14,-0.18 -2.85,-0.24c-0.21,-28.99 -0.03,-57.98 -0.09,-86.97c0.13,-24.88 -0.25,-49.78 0.18,-74.66z" fill="#808285"/>
   <path id="svg_9" d="m595.21,318.12c11.25,-0.34 22.49,0.31 33.74,0.23c13,0.41 26.23,-0.84 38.99,2.37c12.89,2.97 25.01,9.57 34,19.34c13.24,13.95 19.25,33.33 20.06,52.24l0,5.42c-0.72,10.27 -2.26,20.58 -5.96,30.24c-5.94,16.35 -16.78,31.21 -31.59,40.56c-12.5,8.15 -27.61,11.57 -42.41,11.49c-15.61,-0.08 -31.22,0.12 -46.82,-0.11c-0.02,-53.92 -0.01,-107.85 -0.01,-161.78m39.95,30.02c-0.08,33.65 0.02,67.31 -0.05,100.97c7.53,0.27 15.5,0.8 22.48,-2.59c9.15,-4.29 15.07,-13.29 18.34,-22.56c5.69,-16.62 5.48,-35.18 -0.29,-51.75c-3.22,-8.95 -8.77,-17.85 -17.68,-21.99c-7.17,-3.31 -15.2,-1.71 -22.8,-2.08z" fill="#808285"/>
   <path id="svg_10" d="m435.65,318.87c13.11,-0.02 26.21,-0.06 39.32,0.01c0.07,53.7 0.01,107.39 0.03,161.08c-13.12,0.32 -26.24,0.19 -39.35,0.06c-0.15,-53.71 -0.16,-107.44 0,-161.15z" fill="#808285"/>
  </g>
  <g id="#ffd600ff">
   <path id="svg_11" d="m0,219.32c60.25,0.15 120.51,0.07 180.77,0.04c0.13,56.22 0.01,112.45 0.06,168.68c-0.13,30.32 0.24,60.65 -0.19,90.96l-180.64,0l0,-259.68m26.22,26.05c-0.26,3.87 -0.16,7.75 -0.16,11.63c-0.02,65.14 0.03,130.27 -0.02,195.4c42.8,0.19 85.6,-0.08 128.41,0.13c0.1,-1.18 0.17,-2.36 0.21,-3.54c-0.02,-67.84 -0.01,-135.69 -0.01,-203.54c-42.81,-0.04 -85.62,0.13 -128.43,-0.08z" fill="#ffd600"/>
  </g>
 </g>
</svg>