<svg width="300" height="300" xmlns="http://www.w3.org/2000/svg">
 <metadata id="metadata7">image/svg+xml</metadata>

 <g>
  <title>background</title>
  <rect fill="none" id="canvas_background" height="302" width="302" y="-1" x="-1"/>
 </g>
 <g>
  <title>Layer 1</title>
  <path stroke="null" fill="#000000" id="path2386" d="m13.675417,234.396194l0.015694,-169.896194l167.614318,0c10.356084,18.430967 13.199312,23.570547 21.186894,37.33982l20.565161,-37.33982c33.225676,0.133748 34.765537,0.186709 67.019062,0l-53.773681,81.195146c19.531067,31.1473 34.129026,55.609257 53.910382,88.701048l-65.835406,-0.000004l-21.887347,-40.172609l-21.185064,40.172613c-24.011361,-0.060851 -39.858373,-0.01192 -66.170523,0l53.917032,-88.706645l-22.270325,-33.062671l-74.384002,-0.211879l0,20.328214l57.461839,0.213123l0,45.861895l-57.254395,0.190553l-0.213327,55.387404c-21.598934,0.076866 -30.252555,-0.071929 -58.716313,0.000004z"/>
 </g>
</svg>