<svg width="300" height="300" xmlns="http://www.w3.org/2000/svg">
 <defs>
  <clipPath id="clipPath17242" clipPathUnits="userSpaceOnUse">
   <path id="path17244" d="m28.99404,218.438105l31.004,0l0,8.984l-31.004,0l0,-8.984z"/>
  </clipPath>
 </defs>
 <metadata id="metadata58043">image/svg+xml</metadata>
 <g>
  <title>background</title>
  <rect fill="none" id="canvas_background" height="302" width="302" y="-1" x="-1"/>
 </g>
 <g>
  <title>Layer 1</title>
  <g stroke="null" id="layer1">
   <g stroke="null" id="g17238" transform="matrix(9.867957504699707,0,0,-9.867957504699707,-287.8457350629132,2345.735743506106) ">
    <g stroke="null" clip-path="url(#clipPath17242)" id="g17240">
     <g stroke="null" id="g17246">
      <path fill="#231f20" fill-rule="nonzero" id="path17248" d="m54.062742,224.543301l0,0.981l1.453,0c0.686,0 1.235,-0.378 1.401,-0.981l-2.854,0zm3.008,1.617l-3.751,-0.001c-0.629,0 -1.071,-0.44 -1.081,-1.064l0,-0.638l-1.803,0l0,-1.534c0,0 -1.411,0.004 -1.423,0.004c-0.799,0.012 -1.456,0.493 -1.456,1.308c0,0.789 0.637,1.265 1.43,1.285l0,0.004l2.939,0l0,0.636l-4.418,0c-0.856,0 -1.618,-0.766 -1.778,-1.617l-4.101,0c0.143,0.605 0.71,0.964 1.393,0.983l0.022,0l0,-0.002l2.741,0l0,0.636l-4.242,0c-0.852,0 -1.613,-0.759 -1.777,-1.606l0,0.522c0,0.634 -0.445,1.084 -1.081,1.084l-7.702,0c-0.964,0 -1.813,-0.967 -1.813,-1.937c0,-0.97 0.849,-1.929 1.813,-1.929l1.206,0l0,0.023c-0.668,0.183 -1.105,0.894 -1.105,1.835c0,0.827 0.64,1.366 1.454,1.377l1.284,0l0,-3.235l1.826,0l0,2.951c0,0.098 -0.016,0.191 -0.043,0.279l2.336,0l0,-3.23l1.825,0l0,1.596c0.164,-0.846 0.925,-1.596 1.777,-1.596l4.243,0l0,0.632c0,0 -2.736,0.001 -2.739,0.001c-0.685,0.011 -1.264,0.367 -1.416,0.983l4.096,0c0.156,-0.854 0.922,-1.616 1.781,-1.616l3.843,-0.001c0.43,0 0.793,0.302 0.888,0.707l0,-0.706l1.824,0l0,1.616l2.894,0c-0.067,-0.82 -0.484,-1.426 -1.092,-1.593l0,-0.023l1.206,0c0.963,0 1.811,0.959 1.811,1.929c0,0.97 -0.848,1.937 -1.811,1.937"/>
     </g>
     <g stroke="null" id="g17250">
      <path fill="#f68b11" fill-rule="nonzero" id="path17252" d="m39.530539,220.549298c-0.059,-0.086 -0.088,-0.227 -0.088,-0.422c0,-0.17 0.027,-0.287 0.084,-0.356c0.057,-0.069 0.155,-0.105 0.293,-0.105l0.533,0l0,-0.269l-0.547,0c-0.122,0 -0.217,0.011 -0.286,0.032c-0.069,0.021 -0.134,0.054 -0.195,0.105c-0.079,0.063 -0.138,0.144 -0.178,0.245c-0.039,0.101 -0.06,0.223 -0.06,0.363c0,0.273 0.06,0.472 0.177,0.602c0.118,0.13 0.302,0.195 0.55,0.195l0.539,0l0,-0.262l-0.533,0c-0.134,0 -0.231,-0.044 -0.289,-0.128"/>
     </g>
     <g stroke="null" id="g17254">
      <path fill="#f68b11" fill-rule="nonzero" id="path17256" d="m42.590338,220.184307c0,-0.281 0.063,-0.488 0.187,-0.621c0.124,-0.131 0.319,-0.199 0.583,-0.199c0.262,0 0.455,0.068 0.581,0.199c0.125,0.13 0.189,0.334 0.189,0.607c0,0.272 -0.064,0.474 -0.189,0.604c-0.126,0.13 -0.319,0.197 -0.581,0.197c-0.26,0 -0.453,-0.065 -0.579,-0.195c-0.128,-0.13 -0.191,-0.327 -0.191,-0.592m0.77,0.522c0.14,0 0.245,-0.044 0.315,-0.132c0.066,-0.088 0.103,-0.222 0.103,-0.404c0,-0.185 -0.037,-0.319 -0.103,-0.407c-0.07,-0.089 -0.175,-0.131 -0.315,-0.131c-0.143,0 -0.248,0.045 -0.314,0.133c-0.068,0.088 -0.101,0.226 -0.101,0.417c0,0.176 0.033,0.306 0.102,0.394c0.069,0.086 0.175,0.13 0.313,0.13"/>
     </g>
     <g stroke="null" id="g17258">
      <path fill="#f68b11" fill-rule="nonzero" id="path17260" d="m46.950941,220.664502c-0.086,0 -0.151,-0.016 -0.191,-0.048c-0.04,-0.031 -0.059,-0.084 -0.059,-0.153c0,-0.057 0.017,-0.099 0.05,-0.126c0.034,-0.027 0.087,-0.042 0.153,-0.042l0.43,0c0.176,0 0.303,-0.034 0.378,-0.1c0.075,-0.068 0.114,-0.179 0.114,-0.336c0,-0.16 -0.045,-0.275 -0.131,-0.35c-0.086,-0.074 -0.222,-0.112 -0.409,-0.112l-0.862,0l0,0.275l0.812,0c0.092,0 0.158,0.013 0.195,0.04c0.038,0.027 0.057,0.071 0.057,0.134c0,0.065 -0.019,0.111 -0.053,0.139c-0.035,0.027 -0.094,0.039 -0.178,0.039l-0.382,0c-0.178,0 -0.308,0.037 -0.389,0.107c-0.083,0.071 -0.125,0.183 -0.125,0.336c0,0.164 0.045,0.283 0.131,0.359c0.085,0.075 0.222,0.113 0.411,0.113l0.849,0l0,-0.275l-0.801,0z"/>
     </g>
     <g stroke="null" id="g17262">
      <path fill="#f68b11" fill-rule="nonzero" id="path17264" d="m50.662642,220.939206l0.376,-1.183l0.369,1.183l0.495,0l0,-1.542l-0.317,0l0,1.192l-0.369,-1.192l-0.344,0l-0.378,1.205l0.003,-1.205l-0.332,0l0,1.542l0.497,0z"/>
     </g>
     <g stroke="null" id="g17266">
      <path fill="#f68b11" fill-rule="nonzero" id="path17268" d="m54.220137,220.184307c0,-0.281 0.063,-0.488 0.187,-0.621c0.123,-0.131 0.319,-0.199 0.582,-0.199c0.263,0 0.456,0.068 0.582,0.199c0.126,0.13 0.188,0.334 0.188,0.607c0,0.272 -0.062,0.474 -0.188,0.604c-0.126,0.13 -0.319,0.197 -0.582,0.197c-0.259,0 -0.452,-0.065 -0.578,-0.195c-0.128,-0.13 -0.191,-0.327 -0.191,-0.592m0.769,0.522c0.141,0 0.246,-0.044 0.315,-0.132c0.067,-0.088 0.104,-0.222 0.104,-0.404c0,-0.185 -0.037,-0.319 -0.104,-0.407c-0.069,-0.089 -0.174,-0.131 -0.315,-0.131c-0.142,0 -0.247,0.045 -0.314,0.133c-0.067,0.088 -0.101,0.226 -0.101,0.417c0,0.176 0.034,0.306 0.103,0.394c0.069,0.086 0.174,0.13 0.312,0.13"/>
     </g>
     <g stroke="null" id="g17270">
      <path fill="#f68b11" fill-rule="nonzero" id="path17272" d="m58.580343,220.664502c-0.085,0 -0.151,-0.016 -0.19,-0.048c-0.041,-0.031 -0.06,-0.084 -0.06,-0.153c0,-0.057 0.018,-0.099 0.051,-0.126c0.033,-0.027 0.086,-0.042 0.153,-0.042l0.43,0c0.176,0 0.302,-0.034 0.377,-0.1c0.076,-0.068 0.114,-0.179 0.114,-0.336c0,-0.16 -0.044,-0.275 -0.131,-0.35c-0.086,-0.074 -0.222,-0.112 -0.408,-0.112l-0.862,0l0,0.275l0.811,0c0.092,0 0.158,0.013 0.195,0.04c0.038,0.027 0.057,0.071 0.057,0.134c0,0.065 -0.019,0.111 -0.052,0.139c-0.036,0.027 -0.095,0.039 -0.179,0.039l-0.381,0c-0.179,0 -0.309,0.037 -0.39,0.107c-0.082,0.071 -0.124,0.183 -0.124,0.336c0,0.164 0.044,0.283 0.13,0.359c0.086,0.075 0.222,0.113 0.411,0.113l0.849,0l0,-0.275l-0.801,0z"/>
     </g>
    </g>
   </g>
  </g>
 </g>
</svg>