<?xml version="1.0" encoding="UTF-8" standalone="no"?>
<!-- Created with Inkscape (http://www.inkscape.org/) -->

<svg
   xmlns:dc="http://purl.org/dc/elements/1.1/"
   xmlns:cc="http://creativecommons.org/ns#"
   xmlns:rdf="http://www.w3.org/1999/02/22-rdf-syntax-ns#"
   xmlns:svg="http://www.w3.org/2000/svg"
   xmlns="http://www.w3.org/2000/svg"
   xmlns:sodipodi="http://sodipodi.sourceforge.net/DTD/sodipodi-0.dtd"
   xmlns:inkscape="http://www.inkscape.org/namespaces/inkscape"
   width="347.85699"
   height="78.058098"
   id="svg58038"
   version="1.1"
   inkscape:version="0.47 r22583"
   sodipodi:docname="New document 3">
  <defs
     id="defs58040">
    <inkscape:perspective
       sodipodi:type="inkscape:persp3d"
       inkscape:vp_x="0 : 526.18109 : 1"
       inkscape:vp_y="0 : 1000 : 0"
       inkscape:vp_z="744.09448 : 526.18109 : 1"
       inkscape:persp3d-origin="372.04724 : 350.78739 : 1"
       id="perspective58046" />
    <inkscape:perspective
       id="perspective58016"
       inkscape:persp3d-origin="0.5 : 0.33333333 : 1"
       inkscape:vp_z="1 : 0.5 : 1"
       inkscape:vp_y="0 : 1000 : 0"
       inkscape:vp_x="0 : 0.5 : 1"
       sodipodi:type="inkscape:persp3d" />
    <clipPath
       clipPathUnits="userSpaceOnUse"
       id="clipPath17242">
      <path
         d="m 46.5,183.593 31.004,0 0,8.984 -31.004,0 0,-8.984 z"
         id="path17244" />
    </clipPath>
  </defs>
  <sodipodi:namedview
     id="base"
     pagecolor="#ffffff"
     bordercolor="#666666"
     borderopacity="1.0"
     inkscape:pageopacity="0.0"
     inkscape:pageshadow="2"
     inkscape:zoom="1"
     inkscape:cx="173.92849"
     inkscape:cy="37.526281"
     inkscape:document-units="px"
     inkscape:current-layer="layer1"
     showgrid="false"
     inkscape:window-width="1920"
     inkscape:window-height="1018"
     inkscape:window-x="-8"
     inkscape:window-y="-8"
     inkscape:window-maximized="1" />
  <metadata
     id="metadata58043">
    <rdf:RDF>
      <cc:Work
         rdf:about="">
        <dc:format>image/svg+xml</dc:format>
        <dc:type
           rdf:resource="http://purl.org/dc/dcmitype/StillImage" />
        <dc:title></dc:title>
      </cc:Work>
    </rdf:RDF>
  </metadata>
  <g
     inkscape:label="Layer 1"
     inkscape:groupmode="layer"
     id="layer1"
     transform="translate(-201.07151,-520.11464)">
    <g
       transform="matrix(11.485888,0,0,-11.485888,-335.04035,2717.5396)"
       id="g17238">
      <g
         id="g17240"
         clip-path="url(#clipPath17242)">
        <g
           id="g17246"
           transform="translate(71.5687,189.6982)">
          <path
             d="m 0,0 0,0.981 1.453,0 C 2.139,0.981 2.688,0.603 2.854,0 L 0,0 z M 3.008,1.617 -0.743,1.616 c -0.629,0 -1.071,-0.44 -1.081,-1.064 l 0,-0.638 -1.803,0 0,-1.534 c 0,0 -1.411,0.004 -1.423,0.004 -0.799,0.012 -1.456,0.493 -1.456,1.308 0,0.789 0.637,1.265 1.43,1.285 l 0,0.004 2.939,0 0,0.636 -4.418,0 C -7.411,1.617 -8.173,0.851 -8.333,0 l -4.101,0 c 0.143,0.605 0.71,0.964 1.393,0.983 l 0.022,0 0,-0.002 2.741,0 0,0.636 -4.242,0 c -0.852,0 -1.613,-0.759 -1.777,-1.606 l 0,0.522 c 0,0.634 -0.445,1.084 -1.081,1.084 l -7.702,0 c -0.964,0 -1.813,-0.967 -1.813,-1.937 0,-0.97 0.849,-1.929 1.813,-1.929 l 1.206,0 0,0.023 c -0.668,0.183 -1.105,0.894 -1.105,1.835 0,0.827 0.64,1.366 1.454,1.377 l 1.284,0 0,-3.235 1.826,0 0,2.951 c 0,0.098 -0.016,0.191 -0.043,0.279 l 2.336,0 0,-3.23 1.825,0 0,1.596 c 0.164,-0.846 0.925,-1.596 1.777,-1.596 l 4.243,0 0,0.632 c 0,0 -2.736,10e-4 -2.739,10e-4 -0.685,0.011 -1.264,0.367 -1.416,0.983 l 4.096,0 c 0.156,-0.854 0.922,-1.616 1.781,-1.616 l 3.843,-10e-4 c 0.43,0 0.793,0.302 0.888,0.707 l 0,-0.706 1.824,0 0,1.616 2.894,0 C 2.827,-1.453 2.41,-2.059 1.802,-2.226 l 0,-0.023 1.206,0 c 0.963,0 1.811,0.959 1.811,1.929 0,0.97 -0.848,1.937 -1.811,1.937"
             style="fill:#231f20;fill-opacity:1;fill-rule:nonzero;stroke:none"
             id="path17248" />
        </g>
        <g
           id="g17250"
           transform="translate(57.0365,185.7042)">
          <path
             d="m 0,0 c -0.059,-0.086 -0.088,-0.227 -0.088,-0.422 0,-0.17 0.027,-0.287 0.084,-0.356 0.057,-0.069 0.155,-0.105 0.293,-0.105 l 0.533,0 0,-0.269 -0.547,0 c -0.122,0 -0.217,0.011 -0.286,0.032 -0.069,0.021 -0.134,0.054 -0.195,0.105 -0.079,0.063 -0.138,0.144 -0.178,0.245 -0.039,0.101 -0.06,0.223 -0.06,0.363 0,0.273 0.06,0.472 0.177,0.602 0.118,0.13 0.302,0.195 0.55,0.195 l 0.539,0 0,-0.262 -0.533,0 C 0.155,0.128 0.058,0.084 0,0"
             style="fill:#f68b11;fill-opacity:1;fill-rule:nonzero;stroke:none"
             id="path17252" />
        </g>
        <g
           id="g17254"
           transform="translate(60.0963,185.3392)">
          <path
             d="M 0,0 C 0,-0.281 0.063,-0.488 0.187,-0.621 0.311,-0.752 0.506,-0.82 0.77,-0.82 c 0.262,0 0.455,0.068 0.581,0.199 0.125,0.13 0.189,0.334 0.189,0.607 C 1.54,0.258 1.476,0.46 1.351,0.59 1.225,0.72 1.032,0.787 0.77,0.787 0.51,0.787 0.317,0.722 0.191,0.592 0.063,0.462 0,0.265 0,0 M 0.77,0.522 C 0.91,0.522 1.015,0.478 1.085,0.39 1.151,0.302 1.188,0.168 1.188,-0.014 1.188,-0.199 1.151,-0.333 1.085,-0.421 1.015,-0.51 0.91,-0.552 0.77,-0.552 c -0.143,0 -0.248,0.045 -0.314,0.133 -0.068,0.088 -0.101,0.226 -0.101,0.417 0,0.176 0.033,0.306 0.102,0.394 0.069,0.086 0.175,0.13 0.313,0.13"
             style="fill:#f68b11;fill-opacity:1;fill-rule:nonzero;stroke:none"
             id="path17256" />
        </g>
        <g
           id="g17258"
           transform="translate(64.4569,185.8194)">
          <path
             d="m 0,0 c -0.086,0 -0.151,-0.016 -0.191,-0.048 -0.04,-0.031 -0.059,-0.084 -0.059,-0.153 0,-0.057 0.017,-0.099 0.05,-0.126 0.034,-0.027 0.087,-0.042 0.153,-0.042 l 0.43,0 c 0.176,0 0.303,-0.034 0.378,-0.1 0.075,-0.068 0.114,-0.179 0.114,-0.336 0,-0.16 -0.045,-0.275 -0.131,-0.35 C 0.658,-1.229 0.522,-1.267 0.335,-1.267 l -0.862,0 0,0.275 0.812,0 c 0.092,0 0.158,0.013 0.195,0.04 0.038,0.027 0.057,0.071 0.057,0.134 0,0.065 -0.019,0.111 -0.053,0.139 C 0.449,-0.652 0.39,-0.64 0.306,-0.64 l -0.382,0 c -0.178,0 -0.308,0.037 -0.389,0.107 -0.083,0.071 -0.125,0.183 -0.125,0.336 0,0.164 0.045,0.283 0.131,0.359 0.085,0.075 0.222,0.113 0.411,0.113 l 0.849,0 L 0.801,0 0,0 z"
             style="fill:#f68b11;fill-opacity:1;fill-rule:nonzero;stroke:none"
             id="path17260" />
        </g>
        <g
           id="g17262"
           transform="translate(68.1686,186.0941)">
          <path
             d="M 0,0 0.376,-1.183 0.745,0 1.24,0 l 0,-1.542 -0.317,0 0,1.192 -0.369,-1.192 -0.344,0 -0.378,1.205 0.003,-1.205 -0.332,0 0,1.542 L 0,0 z"
             style="fill:#f68b11;fill-opacity:1;fill-rule:nonzero;stroke:none"
             id="path17264" />
        </g>
        <g
           id="g17266"
           transform="translate(71.7261,185.3392)">
          <path
             d="M 0,0 C 0,-0.281 0.063,-0.488 0.187,-0.621 0.31,-0.752 0.506,-0.82 0.769,-0.82 c 0.263,0 0.456,0.068 0.582,0.199 0.126,0.13 0.188,0.334 0.188,0.607 C 1.539,0.258 1.477,0.46 1.351,0.59 1.225,0.72 1.032,0.787 0.769,0.787 0.51,0.787 0.317,0.722 0.191,0.592 0.063,0.462 0,0.265 0,0 M 0.769,0.522 C 0.91,0.522 1.015,0.478 1.084,0.39 1.151,0.302 1.188,0.168 1.188,-0.014 1.188,-0.199 1.151,-0.333 1.084,-0.421 1.015,-0.51 0.91,-0.552 0.769,-0.552 c -0.142,0 -0.247,0.045 -0.314,0.133 -0.067,0.088 -0.101,0.226 -0.101,0.417 0,0.176 0.034,0.306 0.103,0.394 0.069,0.086 0.174,0.13 0.312,0.13"
             style="fill:#f68b11;fill-opacity:1;fill-rule:nonzero;stroke:none"
             id="path17268" />
        </g>
        <g
           id="g17270"
           transform="translate(76.0863,185.8194)">
          <path
             d="m 0,0 c -0.085,0 -0.151,-0.016 -0.19,-0.048 -0.041,-0.031 -0.06,-0.084 -0.06,-0.153 0,-0.057 0.018,-0.099 0.051,-0.126 0.033,-0.027 0.086,-0.042 0.153,-0.042 l 0.43,0 c 0.176,0 0.302,-0.034 0.377,-0.1 0.076,-0.068 0.114,-0.179 0.114,-0.336 0,-0.16 -0.044,-0.275 -0.131,-0.35 C 0.658,-1.229 0.522,-1.267 0.336,-1.267 l -0.862,0 0,0.275 0.811,0 c 0.092,0 0.158,0.013 0.195,0.04 0.038,0.027 0.057,0.071 0.057,0.134 0,0.065 -0.019,0.111 -0.052,0.139 C 0.449,-0.652 0.39,-0.64 0.306,-0.64 l -0.381,0 c -0.179,0 -0.309,0.037 -0.39,0.107 -0.082,0.071 -0.124,0.183 -0.124,0.336 0,0.164 0.044,0.283 0.13,0.359 0.086,0.075 0.222,0.113 0.411,0.113 l 0.849,0 L 0.801,0 0,0 z"
             style="fill:#f68b11;fill-opacity:1;fill-rule:nonzero;stroke:none"
             id="path17272" />
        </g>
      </g>
    </g>
  </g>
</svg>
