<svg width="300" height="300" xmlns="http://www.w3.org/2000/svg">
 <metadata id="metadata6208">image/svg+xml</metadata>

 <g>
  <title>background</title>
  <rect fill="none" id="canvas_background" height="302" width="302" y="-1" x="-1"/>
 </g>
 <g>
  <title>Layer 1</title>
  <g stroke="null" id="g3">
   <path stroke="null" d="m1.323335,58.759042c33.84292,-0.01281 67.672817,-0.025629 101.515737,0.01281c11.554526,12.058865 23.174189,24.053657 34.793851,36.048448c11.515452,-12.084495 23.213283,-24.015212 34.754777,-36.061264c34.025298,-0.01281 68.063628,-0.01281 102.075894,0c0.01291,24.758479 -0.013112,49.504144 0.01291,74.275439c-0.078148,1.127715 0.247517,2.383581 -0.312634,3.434406c-8.441177,13.571031 -15.762093,27.846882 -21.25929,42.814742c-0.703436,1.614683 -1.354747,3.472851 -2.944,4.459602c-1.354747,0.563858 -3.347814,0.320374 -4.077293,-1.089271c-0.963965,-1.781278 -0.911859,-3.857299 -1.185419,-5.805172c-0.885796,-7.548004 -1.693444,-15.134454 -2.957011,-22.644013c-0.755542,-3.83167 -1.615296,-7.970899 -4.520221,-10.854262c-2.722546,-2.614248 -6.891019,-2.870548 -10.434244,-2.024762c-3.256634,0.704822 -6.317857,2.61425 -7.959215,5.523244c-2.136352,3.600999 -2.110289,7.970897 -1.341736,11.956346c1.341736,6.984147 3.738616,13.711995 6.187603,20.388583c4.845887,12.584279 9.75687,25.168558 14.615769,37.740021c1.211482,3.216553 3.12638,6.535625 6.474194,7.983715c2.878863,1.191789 6.135497,1.178974 9.183708,0.743265c2.644377,-0.397262 4.924015,-2.127281 6.239708,-4.369896c2.448986,-4.100784 3.399919,-8.829501 4.845867,-13.327546c2.891874,-9.175504 5.666526,-18.427896 9.392111,-27.32147c0.078169,19.58124 0,39.175296 0.026063,58.756538c-21.233248,0.01281 -42.479507,0 -63.725786,0.01281c-0.859753,-7.27889 -1.485021,-14.621855 -1.094219,-21.93919c0.09118,-7.150742 0.390803,-14.263038 0.312634,-21.41378c0.221454,-10.367292 -1.146345,-20.644881 -1.74555,-30.986544c-0.677394,-8.022157 0.208423,-16.095575 -0.521077,-24.117732c6.031286,-3.716336 12.323099,-6.984147 18.393459,-10.636407c4.077313,-2.4861 8.454229,-4.626196 11.945328,-7.932452c1.92793,-1.845353 3.425982,-4.664643 2.266626,-7.304521c-2.448986,-4.89531 -8.897117,-7.548004 -14.094712,-5.395092c-4.259673,1.922241 -6.786807,6.11273 -10.66873,8.547569c-4.845867,2.947439 -9.730807,5.843616 -14.706948,8.598832c-3.764659,-1.935059 -8.28486,-2.575805 -12.349142,-1.319941c-2.214521,0.704822 -4.259673,2.191357 -5.145489,4.357084c-1.042113,2.383579 -0.169328,4.997828 -0.638299,7.445483c-0.299602,1.512166 -1.498033,2.58862 -2.800694,3.306258c-5.497197,3.203736 -11.046501,6.330583 -16.530667,9.55995c-5.640483,3.242182 -11.111638,6.971332 -17.455557,8.77824c-3.855839,1.1149 -8.37604,2.396395 -10.238833,6.26651c-1.784644,3.767595 0.325645,8.099047 3.308719,10.610777c2.566229,2.40921 6.487225,2.921808 9.769902,1.781278c4.285736,-1.384014 7.81593,-4.305823 11.372166,-6.920072c4.429021,-3.331887 8.962254,-6.509994 13.495487,-9.700916c2.448986,-1.653128 4.911004,-3.460036 7.789867,-4.344267c1.953972,-0.717637 4.41599,0.115334 5.236649,2.063207c1.940961,4.280193 1.328704,9.124243 1.419904,13.686365c0.117243,15.224158 -1.302662,30.397056 -1.83675,45.608401c-0.039074,7.137927 -0.104211,14.263038 0.234486,21.400962c-5.627472,-0.025629 -11.241892,0.05126 -16.869363,-0.051258c0.052106,-16.838842 0.039074,-33.690498 0.013112,-50.529341c-10.681761,8.829499 -21.350491,17.697444 -32.0192,26.526943c-10.694792,-8.816685 -21.350491,-17.684628 -32.01922,-26.501313c-0.026043,16.838842 -0.013112,33.703314 0,50.542156c-34.754775,0.025629 -69.52258,0.01281 -104.264332,0c0.03908,-60.217442 0.03908,-120.422069 0.03908,-180.63951l0,0l0.00002,0.00001z" id="path5"/>
   <path stroke="null" d="m112.38752,58.784671c10.30399,4.395529 20.542843,8.880759 30.833801,13.289102c1.56317,0.640748 2.566209,2.024762 3.738596,3.152477c-3.061223,3.306256 -6.291814,6.458735 -9.353036,9.777805c-8.389092,-8.752609 -16.895406,-17.389883 -25.219361,-26.219384z" id="path7"/>
   <path stroke="null" d="m281.328571,58.669336c5.640483,3.331888 11.293997,6.638144 16.895406,10.008474c-0.039074,12.263907 -0.013112,24.540626 -0.013112,36.817346c-6.005223,6.497178 -11.619663,13.353176 -16.856332,20.478289c-0.065117,-22.426161 -0.01291,-44.865135 -0.026043,-67.304109l0.000081,0z" id="path9"/>
   <path stroke="null" d="m282.605169,163.431538c4.611381,-8.470681 9.769902,-16.685063 15.579733,-24.412475c0.026043,33.459829 0,66.919659 0.01291,100.366673c-5.627452,0.01281 -11.254903,0.01281 -16.882375,0c-0.013112,-24.002398 0.013112,-48.017611 -0.013112,-72.032823c-0.130254,-1.422459 0.651331,-2.691139 1.302662,-3.921374l0,0l0.000182,0z" id="path11"/>
   <path stroke="null" d="m112.439625,203.414178c4.663487,3.806039 9.248825,7.740228 13.964438,11.482193c0.09118,8.163121 0.026063,16.326244 0.039074,24.502181c-4.663487,0 -9.340025,0 -14.003512,0c0,-11.994791 -0.013112,-24.002398 0,-35.984374z" id="path13"/>
   <path stroke="null" d="m147.728491,215.857491c4.963109,-4.126413 9.93925,-8.240011 14.915371,-12.35361c-0.039074,3.319072 0.052106,6.638144 -0.065137,9.931585c-1.042113,0.807343 -2.058184,1.614684 -3.061223,2.447655c-3.947039,0.01281 -7.855004,0.05126 -11.789011,-0.025629z" id="path15"/>
  </g>
 </g>
</svg>